<svg width="16" height="18" viewBox="0 0 16 18" fill="none" xmlns="http://www.w3.org/2000/svg">
<path fill-rule="evenodd" clip-rule="evenodd" d="M11.5395 0C10.6303 0 9.75831 0.359898 9.11539 1.00052L5.07222 5.02925C3.21527 6.87957 1.89791 9.19798 1.26098 11.7366L1.06561 12.5153C0.86299 13.3229 1.59714 14.0544 2.40764 13.8525L3.1891 13.6578C5.73681 13.0232 8.06352 11.7105 9.92047 9.86019L13.9636 5.83146C14.6066 5.19084 14.9678 4.32196 14.9678 3.41599C14.9678 1.52939 13.4329 0 11.5395 0ZM10.3776 4.57378C10.9965 5.19047 11.714 5.45317 12.2462 5.36088L12.8688 4.74049C13.2213 4.38921 13.4194 3.91278 13.4194 3.41599C13.4194 2.38149 12.5777 1.54286 11.5395 1.54286C11.041 1.54286 10.5628 1.7402 10.2103 2.09149L9.58766 2.71187C9.49504 3.24217 9.75868 3.95709 10.3776 4.57378Z" fill="#FAFAFA"/>
<path fill-rule="evenodd" clip-rule="evenodd" d="M0 17.2286C0 16.8025 0.346618 16.4571 0.774194 16.4571H15.2258C15.6534 16.4571 16 16.8025 16 17.2286C16 17.6546 15.6534 18 15.2258 18H0.774194C0.346618 18 0 17.6546 0 17.2286Z" fill="#FAFAFA"/>
</svg>
