<svg width="24" height="18" viewBox="0 0 24 18" fill="none" xmlns="http://www.w3.org/2000/svg">
<path d="M11.9485 11.5686C15.4186 11.5686 18.3817 12.1187 18.3817 14.3202C18.3817 16.5208 15.4376 17.091 11.9485 17.091C8.47828 17.091 5.51523 16.5409 5.51523 14.3403C5.51523 12.1388 8.45926 11.5686 11.9485 11.5686ZM17.4968 10.2429C18.8235 10.2183 20.2498 10.4005 20.7768 10.5299C21.8934 10.7494 22.6278 11.1975 22.9321 11.8487C23.1893 12.3834 23.1893 13.0037 22.9321 13.5374C22.4667 14.5476 20.9661 14.8718 20.3829 14.9556C20.2625 14.9738 20.1656 14.8691 20.1783 14.748C20.4762 11.9489 18.1063 10.6218 17.4932 10.3167C17.467 10.3031 17.4615 10.2821 17.4642 10.2693C17.4661 10.2602 17.4769 10.2457 17.4968 10.2429ZM6.25402 10.241L6.50385 10.2433C6.52377 10.246 6.53373 10.2606 6.53554 10.2688C6.53826 10.2825 6.53283 10.3025 6.50747 10.3171C5.89349 10.6222 3.52359 11.9493 3.82152 14.7474C3.8342 14.8695 3.73821 14.9733 3.61777 14.956C3.03458 14.8722 1.53403 14.5479 1.06857 13.5378C0.810478 13.0031 0.810478 12.3838 1.06857 11.8491C1.37284 11.1979 2.10636 10.7497 3.22294 10.5293C3.75089 10.4009 5.17627 10.2187 6.50385 10.2433L6.25402 10.241ZM11.9485 0.90918C14.3111 0.90918 16.2056 2.81284 16.2056 5.19013C16.2056 7.56652 14.3111 9.472 11.9485 9.472C9.5858 9.472 7.69133 7.56652 7.69133 5.19013C7.69133 2.81284 9.5858 0.90918 11.9485 0.90918ZM17.7278 1.6231C20.0098 1.6231 21.802 3.7827 21.1916 6.18823C20.7796 7.80771 19.2881 8.88341 17.6263 8.83969C17.4597 8.83514 17.2958 8.81965 17.1373 8.79233C17.0223 8.77229 16.9644 8.64204 17.0296 8.54549C17.6635 7.60732 18.0248 6.47879 18.0248 5.26737C18.0248 4.00313 17.63 2.8245 16.9444 1.85809C16.9227 1.82804 16.9064 1.78158 16.9281 1.74697C16.9462 1.71874 16.9798 1.70416 17.0114 1.69688C17.2424 1.64951 17.4796 1.6231 17.7278 1.6231ZM6.27157 1.62301C6.51969 1.62301 6.75696 1.64942 6.98878 1.69678C7.01957 1.70407 7.05399 1.71956 7.0721 1.74688C7.09293 1.78149 7.07753 1.82795 7.0558 1.858C6.37027 2.82441 5.97544 4.00303 5.97544 5.26728C5.97544 6.4787 6.33677 7.60723 6.97067 8.5454C7.03587 8.64195 6.97792 8.7722 6.86291 8.79224C6.70353 8.82047 6.54052 8.83505 6.3739 8.8396C4.71216 8.88332 3.22067 7.80762 2.80864 6.18814C2.19737 3.78261 3.98951 1.62301 6.27157 1.62301Z" fill="#FAFAFA"/>
</svg>
